<svg  viewBox="0 0 1024 1024" version="1.1" xmlns="http://www.w3.org/2000/svg" p-id="17688" width="22" height="22"><path d="M502.390154 935.384615a29.538462 29.538462 0 1 1 0 59.076923H141.430154C79.911385 994.461538 29.538462 946.254769 29.538462 886.153846V137.846154C29.538462 77.745231 79.950769 29.538462 141.390769 29.538462h741.218462c61.44 0 111.852308 48.206769 111.852307 108.307692v300.268308a29.538462 29.538462 0 1 1-59.076923 0V137.846154c0-26.899692-23.355077-49.230769-52.775384-49.230769H141.390769c-29.420308 0-52.775385 22.331077-52.775384 49.230769v748.307692c0 26.899692 23.355077 49.230769 52.775384 49.230769h360.999385z" p-id="17689"></path><path d="M196.923077 216.615385m29.538461 0l374.153847 0q29.538462 0 29.538461 29.538461l0 0q0 29.538462-29.538461 29.538462l-374.153847 0q-29.538462 0-29.538461-29.538462l0 0q0-29.538462 29.538461-29.538461Z" p-id="17690"></path><path d="M649.846154 846.769231a216.615385 216.615385 0 1 0 0-433.230769 216.615385 216.615385 0 0 0 0 433.230769z m0 59.076923a275.692308 275.692308 0 1 1 0-551.384616 275.692308 275.692308 0 0 1 0 551.384616z" p-id="17691"></path><path d="M807.398383 829.479768m20.886847-20.886846l0 0q20.886846-20.886846 41.773692 0l125.321079 125.321079q20.886846 20.886846 0 41.773693l0 0q-20.886846 20.886846-41.773693 0l-125.321078-125.321079q-20.886846-20.886846 0-41.773693Z" p-id="17692"></path></svg>
